<?xml version="1.0" encoding="UTF-8" standalone="no"?>
<!-- Created with Inkscape (http://www.inkscape.org/) -->

<svg
   version="1.1"
   id="svg25"
   width="955.08002"
   height="565.33331"
   viewBox="0 0 955.08002 565.33331"
   sodipodi:docname="LOGOTIPO_PABLIN.eps"
   xmlns:inkscape="http://www.inkscape.org/namespaces/inkscape"
   xmlns:sodipodi="http://sodipodi.sourceforge.net/DTD/sodipodi-0.dtd"
   xmlns="http://www.w3.org/2000/svg"
   xmlns:svg="http://www.w3.org/2000/svg">
  <defs
     id="defs29" />
  <sodipodi:namedview
     id="namedview27"
     pagecolor="#505050"
     bordercolor="#eeeeee"
     borderopacity="1"
     inkscape:showpageshadow="0"
     inkscape:pageopacity="0"
     inkscape:pagecheckerboard="0"
     inkscape:deskcolor="#505050"
     showgrid="false" />
  <g
     id="g33"
     inkscape:groupmode="layer"
     inkscape:label="Page 1"
     transform="matrix(1.3333333,0,0,-1.3333333,0,565.33333)">
    <g
       id="g35"
       transform="scale(0.1)">
      <path
         d="m 5869.1569,1360.499 c 11.97,-47.63 12.34,-95.53 1.09,-142.52 -31.63,-131.37 -148.91,-223.15 -285.22,-223.15 -28.34,0 -57.04,3.93 -85.2,11.79 -129.9,36.2 -268.68,73.78 -449.87,121.68 -122.59,32.36 -250.48,62.25 -380.02,88.67 -76.06,15.45 -145.08,28.25 -211.08,39.04 l -13.62,2.19 c -48.18,7.96 -93.71,15.36 -139.32,21.4 -17.65,2.28 -35.2,4.75 -52.84,7.22 -30.35,4.29 -58.97,8.23 -87.22,11.42 l -13.52,1.56 c -46.63,5.21 -90.69,10.15 -134.39,13.35 -21.39,1.55 -42.69,3.47 -63.99,5.39 -26.42,2.38 -51.38,4.57 -75.51,6.03 -64.82,3.75 -133.2,7.32 -203.31,10.61 -106.69,4.93 -204.6,7.77 -299.31,8.59 -76.7,0.73 -135.84,1.01 -191.79,1.01 -127.8,0 -233.94,-1.65 -333.86,-5.21 -19.2,-0.64 -38.48,-1.01 -57.68,-1.38 -19.66,-0.36 -38.21,-0.73 -56.22,-1.37 -74.51,-3.01 -148.92,-6.4 -218.77,-9.78 -35.739,-1.64 -71.575,-3.84 -98.817,-5.58 -56.223,-3.65 -112.445,-7.4 -168.574,-11.24 l -33.004,-2.29 c -36.567,-2.46 -71.121,-4.75 -105.586,-7.86 -31.723,-2.83 -63.446,-6.03 -95.164,-9.23 -30.809,-3.11 -61.617,-6.22 -92.426,-8.96 -9.051,-1.64 -24.957,-4.11 -44.336,-4.11 -29.984,0 -58.965,5.85 -86.117,17.28 -12.707,5.39 -24.684,12.06 -35.926,19.92 l -3.016,2.11 c -8.136,5.76 -15.726,11.97 -22.765,18.74 -6.125,5.76 -11.793,11.97 -17.094,18.46 -48.816,60.43 -64.359,135.12 -42.691,204.96 21.574,69.57 76.242,122.14 150.015,144.17 73.5,21.94 150.106,41.59 235.309,60.24 -8.867,26.79 -13.621,55.4 -13.621,85.02 v 891.5 c 0,331.85 270.047,601.9 601.893,601.9 331.94,0 601.89,-270.05 601.89,-601.9 0,-20.93 -1.09,-41.59 -3.2,-61.98 27.43,9.33 56.77,14.36 87.31,14.36 84.47,0 162.81,-38.03 215.1,-104.4 23.59,-29.81 40.59,-64.54 50.1,-101.48 21.3,-3.74 42.14,-9.05 62.44,-15.72 5.03,26.51 13.99,51.65 26.33,74.87 -21.85,53.48 -24.87,112.44 -7.32,167.75 25.51,80.17 90.96,141.61 175.25,164.28 l 74.69,20.2 c 68.11,18.38 136.21,36.75 204.32,54.94 34.83,153.04 69.75,305.98 104.67,458.92 l 30.81,135.12 c 23.58,103.3 108.69,179.82 211.9,190.51 8.96,0.92 18.01,1.46 26.79,1.46 98.64,0 184.85,-57.5 224.98,-150.01 57.23,-131.92 184.75,-425.92 184.75,-425.92 67.84,18.01 422.35,112.17 422.35,112.17 87.12,23.22 174.24,46.35 261.46,69.48 24.41,6.4 48.81,9.69 72.49,9.69 113.45,0 207.52,-74.23 239.51,-189.14 2.93,-10.42 4.94,-21.12 6.13,-31.91 8.96,-85.84 -25.87,-167.84 -95.71,-224.98 l -18.84,-17.64 c -97.36,-91.24 -194.72,-182.38 -291.98,-273.7 -34.19,-32 -68.29,-64.09 -102.48,-96.18 -39.5,-37.11 -78.99,-74.23 -118.57,-111.34 12.34,-22.4 24.68,-44.89 37.2,-67.19 168.67,-300.77 337.43,-601.53 506.18,-902.3 l 2.38,-4.11 c 7.04,-12.34 18.83,-32.91 28.07,-59.79 1.73,-5.12 3.29,-10.33 4.57,-15.63"
         style="fill:#26803a;fill-opacity:1;fill-rule:nonzero;stroke:none"
         id="path85" />
      <path
         d="m 5731.8069,1466.979 c 11.44,-45.48 11.79,-91.22 1.05,-136.09 -30.2,-125.44 -142.2,-213.09 -272.36,-213.09 -27.06,0 -54.48,3.76 -81.36,11.26 -124.05,34.57 -256.57,70.45 -429.58,116.19 -117.07,30.91 -239.2,59.45 -362.89,84.68 -72.63,14.75 -138.54,26.98 -201.57,37.28 l -13.01,2.09 c -46,7.6 -89.47,14.67 -133.03,20.43 -16.85,2.18 -33.61,4.54 -50.46,6.89 -28.98,4.11 -56.31,7.86 -83.28,10.92 l -12.92,1.48 c -44.52,4.98 -86.6,9.69 -128.33,12.75 -20.42,1.48 -40.76,3.31 -61.1,5.15 -25.23,2.27 -49.06,4.36 -72.11,5.76 -61.89,3.58 -127.19,6.98 -194.15,10.12 -101.87,4.72 -195.36,7.42 -285.8,8.21 -73.24,0.7 -129.72,0.96 -183.15,0.96 -122.04,0 -223.39,-1.57 -318.8,-4.98 -18.33,-0.61 -36.75,-0.96 -55.09,-1.31 -18.76,-0.34 -36.48,-0.69 -53.68,-1.3 -71.15,-2.89 -142.21,-6.12 -208.9,-9.35 -34.132,-1.57 -68.355,-3.66 -94.367,-5.32 -53.687,-3.49 -107.375,-7.07 -160.972,-10.74 l -31.516,-2.18 c -34.918,-2.36 -67.914,-4.54 -100.824,-7.51 -30.293,-2.7 -60.586,-5.76 -90.875,-8.81 -29.422,-2.97 -58.84,-5.94 -88.258,-8.56 -8.641,-1.57 -23.832,-3.93 -42.34,-3.93 -28.633,0 -56.305,5.59 -82.23,16.5 -12.133,5.15 -23.571,11.52 -34.309,19.03 l -2.879,2.01 c -7.769,5.5 -15.015,11.44 -21.738,17.89 -5.848,5.5 -11.262,11.44 -16.324,17.64 -46.618,57.7 -61.457,129.02 -40.766,195.72 20.602,66.43 72.805,116.62 143.25,137.66 70.188,20.95 143.34,39.72 224.699,57.53 -8.465,25.58 -13.008,52.9 -13.008,81.18 v 851.31 c 0,316.88 257.875,574.76 574.757,574.76 316.97,0 574.76,-257.88 574.76,-574.76 0,-19.99 -1.05,-39.72 -3.06,-59.18 26.19,8.9 54.21,13.7 83.37,13.7 80.66,0 155.47,-36.31 205.4,-99.69 22.53,-28.46 38.76,-61.63 47.84,-96.9 20.34,-3.58 40.25,-8.64 59.63,-15.01 4.8,25.31 13.35,49.32 25.14,71.49 -20.87,51.07 -23.75,107.38 -6.99,160.19 24.36,76.56 86.86,135.22 167.35,156.87 l 71.32,19.29 c 65.03,17.55 130.07,35.1 195.11,52.47 33.25,146.13 66.6,292.17 99.95,438.22 l 29.42,129.02 c 22.52,98.65 103.79,171.71 202.35,181.93 8.55,0.87 17.2,1.39 25.58,1.39 94.19,0 176.51,-54.9 214.83,-143.25 54.65,-125.96 176.43,-406.71 176.43,-406.71 64.77,17.2 403.3,107.11 403.3,107.11 83.2,22.18 166.39,44.26 249.67,66.35 23.31,6.11 46.61,9.25 69.22,9.25 108.34,0 198.16,-70.88 228.72,-180.61 2.79,-9.96 4.71,-20.17 5.85,-30.47 8.55,-81.97 -24.71,-160.28 -91.4,-214.83 l -17.98,-16.85 c -92.97,-87.12 -185.94,-174.16 -278.83,-261.37 -32.65,-30.55 -65.21,-61.19 -97.86,-91.83 -37.71,-35.44 -75.42,-70.88 -113.22,-106.33 11.79,-21.38 23.57,-42.86 35.53,-64.16 161.06,-287.2 322.21,-574.41 483.36,-861.61 l 2.27,-3.93 c 6.72,-11.78 17.98,-31.42 26.8,-57.09 1.66,-4.89 3.14,-9.86 4.36,-14.93"
         style="fill:#f9e248;fill-opacity:1;fill-rule:nonzero;stroke:none"
         id="path87" />
      <path
         d="m 1909.0219,1577.709 c -14.527,17.99 -10.453,32.45 11.238,38.93 107.832,32.2 217.477,56.77 327.977,77.73 102.902,19.53 206.39,35.38 310.24,48.82 89.5,11.57 179.24,21.14 269.13,29.43 99.64,9.2 199.41,16.64 299.29,22.53 79.51,4.68 159.12,7.97 238.72,11.13 105.52,4.2 211.09,6.55 316.72,6.42 155.07,-0.18 310,-5.02 464.79,-14.26 101.08,-6.02 202,-13.9 302.82,-23.22 103.95,-9.6 207.69,-21.02 311.24,-34.12 113.61,-14.37 226.97,-30.66 340.1,-48.46 22,-3.47 40.52,2.75 53.49,21.57 13.23,19.19 12.1,38.61 0.78,58.56 -94.15,165.98 -188.13,332.07 -282.16,498.13 -29.74,52.51 -59.61,104.94 -89.2,157.53 -28.36,50.39 -20.35,100.21 21.39,139.65 95.32,90.05 190.39,180.35 285.6,270.51 34.77,32.94 69.66,65.74 104.41,98.69 4.79,4.55 9.05,9.68 13.55,14.52 7.7,7.24 15.52,14.37 23.08,21.76 5.71,5.59 11.31,11.63 6.45,20.45 -5.11,9.27 -12.92,9.34 -22.29,6.82 -181.64,-48.93 -363.39,-97.47 -544.96,-146.64 -23.49,-6.36 -44.67,-5.71 -64.21,9.82 -0.94,1.12 -1.87,2.23 -2.81,3.36 l -0.19,0.25 c -16.31,26.84 -26.43,56.52 -38.93,85.09 -32.06,73.31 -63.47,146.9 -95.26,220.33 -2.31,5.34 -5.59,10.25 -8.39,15.34 -4.06,9.7 -8.3,19.36 -12.19,29.16 -3.48,8.75 -8.56,15.11 -19.04,13.93 -10.36,-1.16 -13.73,-8.25 -15.75,-17.59 -30.39,-140.8 -61.03,-281.55 -91.59,-422.32 -4.81,-22.16 -18.51,-35.58 -40.13,-41.47 -131.96,-35.95 -263.94,-71.83 -395.84,-108 -20.98,-5.75 -40.17,-3.62 -57.97,9.11 -27.6,33.31 -15.06,74.42 26.16,85.53 113.43,30.58 226.82,61.31 340.36,91.48 23,6.12 36.34,19.77 41.57,42.71 48.76,214.26 97.67,428.49 146.54,642.72 4.96,21.74 20.54,36.57 40.54,38.63 23.57,2.44 41.04,-8.08 51.05,-31.17 70.91,-163.39 141.76,-326.81 212.63,-490.23 3.89,-8.97 7.74,-17.98 11.75,-26.9 10.05,-22.41 30.18,-32.16 54,-25.84 153.69,40.79 307.35,81.65 461.03,122.48 102.57,27.25 205.13,54.53 307.72,81.68 37.58,9.95 61.14,-3.92 71.69,-41.75 2.32,-22.14 -7.93,-38.41 -24.31,-51.82 -1.82,-1.49 -3.72,-2.9 -5.43,-4.51 -100.28,-93.96 -200.58,-187.92 -300.81,-281.94 -84.49,-79.24 -168.83,-158.64 -253.41,-237.79 -41.21,-38.55 -48.49,-86.87 -19.83,-135.84 0.8,-1.99 1.61,-3.98 2.4,-5.97 l 0.2,0.03 c 20.05,-36.33 39.9,-72.77 60.19,-108.96 161.05,-287.23 322.19,-574.41 483.33,-861.59 5.55,-9.9 11.65,-19.5 15.34,-30.29 3.97,-15.81 4.32,-31.76 0.51,-47.63 -10.56,-44 -57.81,-84.68 -123.35,-66.4 -143.7,40.08 -287.8,78.71 -432.03,116.84 -123.55,32.67 -248.04,61.55 -373.26,87.08 -69.3,14.12 -138.81,27.19 -208.63,38.61 -50.54,8.27 -101.05,16.7 -151.83,23.37 -45.77,6.02 -91.41,13.12 -137.27,18.25 -49.42,5.52 -98.84,11.25 -148.48,14.85 -45.33,3.29 -90.55,8.47 -135.91,11.1 -65.37,3.79 -130.76,7.18 -196.18,10.24 -97.6,4.57 -195.25,7.6 -292.9,8.46 -170.05,1.49 -340.14,1.89 -510.15,-4.15 -36.48,-1.29 -73,-1.26 -109.47,-2.7 -70.14,-2.76 -140.27,-6.01 -210.39,-9.32 -32.487,-1.53 -64.963,-3.48 -97.424,-5.56 -53.993,-3.46 -107.969,-7.1 -161.942,-10.82 -45.359,-3.14 -90.761,-5.88 -136.043,-9.92 -61.636,-5.51 -123.148,-12.4 -184.785,-17.93 -9.879,-0.88 -19.992,-5.07 -30.109,-0.79 -0.985,0.69 -1.969,1.39 -2.949,2.08 l -0.223,0.19"
         style="fill:#e41a30;fill-opacity:1;fill-rule:nonzero;stroke:none"
         id="path89" />
      <path
         d="m 4738.9369,2110.449 v -177.27 c 0,-41.88 -33.93,-75.9 -75.9,-75.9 -24.21,0 -45.73,11.34 -59.66,28.93 -10.18,12.95 -16.25,29.2 -16.25,46.97 v 177.27 c 0,55.9 -45.37,101.27 -101.27,101.27 -55.91,0 -101.27,-45.37 -101.27,-101.27 v -177.27 c 0,-17.77 -6.07,-34.02 -16.34,-46.97 -13.84,-17.59 -35.46,-28.93 -59.57,-28.93 -41.97,0 -75.99,34.02 -75.99,75.9 v 177.27 c 0,139.76 113.32,253.08 253.17,253.08 139.76,0 253.08,-113.32 253.08,-253.08"
         style="fill:#26803a;fill-opacity:1;fill-rule:nonzero;stroke:none"
         id="path91" />
      <path
         d="m 3169.3469,2110.419 v -177.16 c 0,-41.96 -34.02,-75.98 -75.99,-75.98 -24.11,0 -45.72,11.34 -59.56,28.93 -10.26,12.95 -16.34,29.29 -16.34,47.05 v 177.16 c 0,55.89 -45.36,101.25 -101.25,101.25 -55.9,0 -101.26,-45.36 -101.26,-101.25 0,-55.9 45.36,-101.26 101.26,-101.26 41.96,0 75.89,-34.02 75.89,-75.9 0,-40.53 -31.6,-73.57 -71.52,-75.89 -1.43,-0.09 -2.94,-0.09 -4.37,-0.09 -1.43,0 -2.95,0 -4.38,0.09 -137.77,2.32 -248.76,114.65 -248.76,253.05 0,139.83 113.31,253.14 253.14,253.14 139.83,0 253.14,-113.31 253.14,-253.14"
         style="fill:#26803a;fill-opacity:1;fill-rule:nonzero;stroke:none"
         id="path93" />
      <path
         d="m 3232.6269,2110.419 v 367.01 c 0,41.96 34.02,75.98 75.99,75.98 24.11,0 45.72,-11.34 59.56,-28.93 10.27,-12.94 16.34,-29.28 16.34,-47.05 v -367.01 c 0,-55.9 45.36,-101.26 101.25,-101.26 55.9,0 101.26,45.36 101.26,101.26 0,55.9 -45.36,101.25 -101.26,101.25 -41.96,0 -75.89,34.02 -75.89,75.9 0,40.54 31.6,73.58 71.52,75.9 1.43,0.09 2.95,0.09 4.37,0.09 1.43,0 2.95,0 4.38,-0.09 137.77,-2.32 248.76,-114.65 248.76,-253.05 0,-139.83 -113.31,-253.14 -253.14,-253.14 -139.83,0 -253.14,113.31 -253.14,253.14"
         style="fill:#26803a;fill-opacity:1;fill-rule:nonzero;stroke:none"
         id="path95" />
      <path
         d="m 3954.0069,2477.479 v -544.3 c 0,-41.88 -33.93,-75.9 -75.9,-75.9 -41.98,0 -75.91,34.02 -75.91,75.9 v 544.3 c 0,41.98 33.93,75.91 75.91,75.91 41.97,0 75.9,-33.93 75.9,-75.91"
         style="fill:#26803a;fill-opacity:1;fill-rule:nonzero;stroke:none"
         id="path97" />
      <path
         d="m 4169.1069,2221.349 v -288.17 c 0,-41.88 -33.93,-75.9 -75.9,-75.9 -41.98,0 -75.91,34.02 -75.91,75.9 v 288.17 c 0,41.97 33.93,75.91 75.91,75.91 41.97,0 75.9,-33.94 75.9,-75.91"
         style="fill:#26803a;fill-opacity:1;fill-rule:nonzero;stroke:none"
         id="path99" />
      <path
         d="m 4206.2769,2433.829 -50.81,-72.57 c -24.08,-34.38 -71.41,-42.66 -105.79,-18.59 -34.31,24.03 -42.72,71.34 -18.64,105.72 l 50.81,72.57 c 24.07,34.38 71.46,42.73 105.77,18.71 34.38,-24.07 42.73,-71.46 18.66,-105.84"
         style="fill:#26803a;fill-opacity:1;fill-rule:nonzero;stroke:none"
         id="path101" />
      <path
         d="m 3042.7769,2784.419 c 0,-214.96 -174.23,-389.18 -389.18,-389.18 h -120.2 c -32.957,0 -61.086,20.98 -71.535,50.36 -2.946,7.95 -4.465,16.52 -4.465,25.54 0,41.97 34.023,75.91 76,75.91 h 120.2 c 131.09,0 237.36,106.27 237.36,237.37 0,131.09 -106.27,237.27 -237.36,237.27 -131.1,0 -237.278,-106.18 -237.278,-237.27 v -851.24 c 0,-41.88 -34.024,-75.9 -75.996,-75.9 -41.973,0 -75.907,34.02 -75.907,75.9 v 851.24 c 0,214.95 174.227,389.18 389.181,389.18 214.95,0 389.18,-174.23 389.18,-389.18"
         style="fill:#26803a;fill-opacity:1;fill-rule:nonzero;stroke:none"
         id="path103" />
    </g>
  </g>
</svg>
